<svg preserveAspectRatio="none" overflow="visible" style="display: block;" width="51.0204" height="16" viewBox="0 0 51.0204 16" fill="none" xmlns="http://www.w3.org/2000/svg">
<g id="paytm-1" clip-path="url(#clip0_10505_309580)">
<path id="Vector" d="M50.8472 4.72455C50.3841 3.40047 49.1219 2.44965 47.6396 2.44965H47.6086C46.645 2.44965 45.7764 2.85067 45.1582 3.49455C44.539 2.85067 43.6705 2.44965 42.7078 2.44965H42.6768C41.8296 2.44965 41.0554 2.75985 40.4607 3.27312V3.0121C40.4403 2.7521 40.2264 2.54781 39.9623 2.54781H37.6884C37.4103 2.54781 37.1858 2.77251 37.1858 3.05149V15.3996C37.1858 15.6788 37.4105 15.9033 37.6884 15.9033H39.9623C40.2158 15.9033 40.4243 15.7139 40.4576 15.469L40.4566 6.60455C40.4566 6.57353 40.4576 6.54475 40.4609 6.51577C40.4972 6.12006 40.787 5.79496 41.245 5.75414H41.6641C41.8556 5.77128 42.0172 5.83863 42.1443 5.94026C42.3423 6.0974 42.4523 6.33924 42.4523 6.60455L42.4609 15.4254C42.4609 15.7045 42.6866 15.9303 42.9635 15.9303H45.2374C45.5058 15.9303 45.7241 15.7164 45.737 15.4501L45.736 6.59291C45.735 6.30189 45.8696 6.03883 46.106 5.88271C46.2225 5.80781 46.3627 5.75761 46.5241 5.74251H46.9433C47.4354 5.78536 47.7327 6.15863 47.7317 6.59291L47.7403 15.4019C47.7403 15.6811 47.966 15.9056 48.2429 15.9056H50.5168C50.7937 15.9056 51.0194 15.6809 51.0194 15.4019V5.92781C51.0194 5.28169 50.9468 5.00679 50.8472 4.72455ZM35.4533 2.58006H34.1527V0.466588C34.1527 0.213119 33.9474 0.0078125 33.6939 0.0078125C33.6639 0.0078125 33.6352 0.0120982 33.6072 0.0174043C32.1654 0.413119 32.4541 2.41006 29.8221 2.58006H29.5664C29.5278 2.58006 29.4915 2.58536 29.4562 2.59291H29.4541L29.4562 2.59393C29.2315 2.64414 29.0625 2.84312 29.0625 3.08271V5.35679C29.0625 5.63373 29.2882 5.85945 29.5662 5.85945H30.9384L30.9364 15.5017C30.9364 15.7766 31.1588 15.999 31.4337 15.999H33.6819C33.9558 15.999 34.1782 15.7766 34.1782 15.5017L34.1792 5.85945H35.4531C35.7301 5.85945 35.9558 5.63373 35.9558 5.35679V3.08291C35.9562 2.80577 35.7305 2.58006 35.4533 2.58006Z" fill="var(--fill-0, #54C1F0)"/>
<path id="Vector_2" d="M27.2731 2.57853H24.9992C24.7222 2.57853 24.4976 2.80425 24.4976 3.08119V7.78302C24.4922 8.07404 24.2569 8.30711 23.9649 8.30711H23.0131C22.718 8.30711 22.4794 8.06976 22.4794 7.77445L22.4708 3.08119C22.4708 2.80425 22.2451 2.57853 21.9682 2.57853H19.6941C19.4159 2.57853 19.1914 2.80425 19.1914 3.08119V8.23445C19.1914 10.1918 20.5871 11.5875 22.5455 11.5875C22.5455 11.5875 24.0151 11.5875 24.06 11.5961C24.3253 11.6261 24.5316 11.8485 24.5316 12.1224C24.5316 12.393 24.3294 12.6145 24.0673 12.6475C24.0545 12.6496 24.0427 12.6528 24.0288 12.6551L20.7035 12.6669C20.4253 12.6669 20.2008 12.8926 20.2008 13.1696V15.4424C20.2008 15.7206 20.4255 15.9451 20.7035 15.9451H24.4212C26.3806 15.9451 27.7753 14.5504 27.7753 12.592V3.08139C27.7757 2.80425 27.5512 2.57853 27.2731 2.57853ZM5.46327 2.57812H0.493061C0.220408 2.57812 0 2.79935 0 3.07119V5.29915C0 5.30343 0.00102041 5.30772 0.00102041 5.312C0.00102041 5.32262 0 5.33343 0 5.34302V15.4267C0 15.7006 0.205306 15.924 0.46 15.9304H2.77673C3.05367 15.9304 3.27939 15.7057 3.27939 15.4277L3.28796 11.972H5.46347C7.28388 11.972 8.55245 10.7089 8.55245 8.88098V5.67343C8.55225 3.84547 7.28367 2.57812 5.46327 2.57812ZM5.26327 8.14833C5.26327 8.44241 5.02469 8.682 4.73061 8.682L3.28776 8.68302V5.87119H4.73061C5.02469 5.87119 5.26327 6.10853 5.26327 6.40384V8.14833ZM14.3365 2.59098H11.1814C10.9022 2.59098 10.6765 2.80282 10.6765 3.06261V3.9471C10.6765 3.95241 10.6776 3.95894 10.6776 3.96425C10.6776 3.97057 10.6765 3.9771 10.6765 3.98343V5.19527C10.6765 5.47017 10.9161 5.69466 11.2112 5.69466H14.2157C14.4531 5.732 14.6414 5.90527 14.6682 6.17588V6.46894C14.6414 6.7267 14.4553 6.91486 14.2286 6.93629H12.7408C10.762 6.93629 9.35245 8.25078 9.35245 10.0969V12.7408C9.35245 14.5761 10.5643 15.882 12.529 15.882H16.6522C17.3925 15.882 17.9925 15.3216 17.9925 14.6316V6.00404C17.9925 3.912 16.9143 2.59098 14.3365 2.59098ZM14.6982 12.4385C14.6982 12.4675 14.6939 12.4953 14.6896 12.522C14.6842 12.5471 14.6771 12.5718 14.6682 12.5959C14.5976 12.7949 14.3986 12.9391 14.1622 12.9391H13.2157C12.9206 12.9391 12.6798 12.7145 12.6798 12.4385V12.0096C12.6798 12.0042 12.6788 11.9989 12.6788 11.9934L12.6798 10.8522V10.4951L12.6808 10.4918C12.6818 10.2169 12.9204 9.99445 13.2155 9.99445H14.162C14.4584 9.99445 14.698 10.2179 14.698 10.4951V12.4385H14.6982Z" fill="var(--fill-0, #233266)"/>
</g>
<defs>
<clipPath id="clip0_10505_309580">
<rect width="51.0204" height="16" fill="white"/>
</clipPath>
</defs>
</svg>
